<?xml version="1.0" encoding="UTF-8"?> <svg xmlns="http://www.w3.org/2000/svg" xmlns:xlink="http://www.w3.org/1999/xlink" version="1.1" width="700px" height="171px" style="shape-rendering:geometricPrecision; text-rendering:geometricPrecision; image-rendering:optimizeQuality; fill-rule:evenodd; clip-rule:evenodd"><g><path style="opacity:0.907" fill="#000000" d="M 209.5,-0.5 C 210.5,-0.5 211.5,-0.5 212.5,-0.5C 212.657,0.873441 212.49,2.20677 212,3.5C 193.275,39.8896 167.108,69.7229 133.5,93C 125.158,98.1175 116.158,100.117 106.5,99C 104.582,97.2298 104.082,95.0631 105,92.5C 114.369,83.4628 124.035,74.7962 134,66.5C 139.315,59.6986 139.982,52.6986 136,45.5C 127.733,36.4473 117.567,30.6139 105.5,28C 70.3089,19.361 35.9756,21.861 2.5,35.5C 1.41635,35.315 0.416349,34.9817 -0.5,34.5C -0.5,32.8333 -0.5,31.1667 -0.5,29.5C 1.47881,28.1879 3.14548,26.5212 4.5,24.5C 30.3134,12.6354 57.48,6.30202 86,5.5C 103.544,6.96393 121.044,8.79727 138.5,11C 158.831,12.8497 178.831,11.1831 198.5,6C 202.923,4.80095 206.59,2.63429 209.5,-0.5 Z"></path></g><g><path style="opacity:0.956" fill="#000000" d="M 287.5,19.5 C 298.805,19.5358 309.805,21.3691 320.5,25C 336.625,33.057 344.791,46.2236 345,64.5C 345.5,92.1647 345.667,119.831 345.5,147.5C 334.167,147.5 322.833,147.5 311.5,147.5C 312.532,139.528 312.698,131.528 312,123.5C 305.499,142.43 292.166,151.097 272,149.5C 246.05,150.714 232.883,138.381 232.5,112.5C 231.483,99.0365 236.483,88.5365 247.5,81C 255.095,77.135 263.095,74.4684 271.5,73C 284.824,71.025 298.158,69.1917 311.5,67.5C 310.08,53.9234 302.414,47.09 288.5,47C 280.431,46.6369 272.431,47.3035 264.5,49C 255.7,51.5448 247.033,54.3782 238.5,57.5C 239.149,49.155 239.983,40.8217 241,32.5C 247.735,27.8017 255.235,24.635 263.5,23C 271.573,21.3151 279.573,20.1484 287.5,19.5 Z M 308.5,89.5 C 309.833,89.5 311.167,89.5 312.5,89.5C 315.158,111.01 305.658,122.343 284,123.5C 272.809,124.691 266.642,119.857 265.5,109C 265.878,101.285 269.878,96.6185 277.5,95C 287.961,93.1055 298.294,91.2722 308.5,89.5 Z"></path></g><g><path style="opacity:0.963" fill="#000000" d="M 532.5,19.5 C 547.51,18.3329 561.843,20.8329 575.5,27C 588.42,35.328 595.92,47.1613 598,62.5C 598.717,73.8554 598.551,85.1887 597.5,96.5C 570.5,96.5 543.5,96.5 516.5,96.5C 516.911,111.416 524.577,119.916 539.5,122C 559.024,124.886 577.691,122.052 595.5,113.5C 595.833,114.833 596.167,116.167 596.5,117.5C 595.63,124.829 594.797,132.162 594,139.5C 584.816,144.59 574.983,147.756 564.5,149C 502.538,156.704 475.705,129.537 484,67.5C 487.468,38.5315 503.635,22.5315 532.5,19.5 Z M 534.5,45.5 C 555.983,42.6574 566.983,51.9907 567.5,73.5C 550.513,74.4995 533.513,74.8328 516.5,74.5C 515.248,59.9503 521.248,50.2836 534.5,45.5 Z"></path></g><g><path style="opacity:0.953" fill="#000000" d="M 699.5,35.5 C 699.5,42.1667 699.5,48.8333 699.5,55.5C 684.136,51.7053 670.136,54.5386 657.5,64C 655.667,66.5 653.833,69 652,71.5C 651.5,96.8311 651.333,122.164 651.5,147.5C 640.167,147.5 628.833,147.5 617.5,147.5C 617.5,105.833 617.5,64.1667 617.5,22.5C 628.167,22.5 638.833,22.5 649.5,22.5C 648.916,32.4997 648.75,42.4997 649,52.5C 655.94,27.1007 672.44,17.1007 698.5,22.5C 698.182,27.0323 698.515,31.3656 699.5,35.5 Z"></path></g><g><path style="opacity:0.954" fill="#000000" d="M 353.5,22.5 C 365.167,22.5 376.833,22.5 388.5,22.5C 396.928,56.8898 406.261,90.8898 416.5,124.5C 426.218,91.0028 435.551,57.3361 444.5,23.5C 456.167,22.1667 467.833,22.1667 479.5,23.5C 466.887,64.6696 454.887,106.003 443.5,147.5C 425.488,147.833 407.488,147.5 389.5,146.5C 376.887,105.33 364.887,63.9971 353.5,22.5 Z"></path></g><g><path style="opacity:0.707" fill="#000000" d="M 58.5,24.5 C 74.1953,23.7899 89.5286,25.7899 104.5,30.5C 84.0062,28.87 64.0062,31.37 44.5,38C 38.3186,41.2567 31.9852,44.2567 25.5,47C 22.854,47.4974 20.1873,47.6641 17.5,47.5C 18.0913,44.3864 19.758,41.8864 22.5,40C 27.9065,36.268 33.5731,32.9347 39.5,30C 46.0011,28.2962 52.3344,26.4628 58.5,24.5 Z"></path></g><g><path style="opacity:0.66" fill="#000000" d="M 72.5,32.5 C 80.1739,32.3336 87.8406,32.5003 95.5,33C 101.446,34.4832 107.446,35.6499 113.5,36.5C 113.649,37.552 113.483,38.552 113,39.5C 90.3608,35.3617 69.1942,39.195 49.5,51C 46.6074,52.1488 43.6074,52.6488 40.5,52.5C 40.3433,51.1266 40.51,49.7932 41,48.5C 50.1376,40.3482 60.6376,35.0149 72.5,32.5 Z"></path></g><g><path style="opacity:0.585" fill="#000000" d="M 89.5,41.5 C 100.546,40.6354 111.213,41.9688 121.5,45.5C 103.78,44.2102 87.1137,47.7102 71.5,56C 69.5273,56.4955 67.5273,56.6621 65.5,56.5C 66.1434,53.0125 68.1434,50.5125 71.5,49C 77.3443,45.7841 83.3443,43.2841 89.5,41.5 Z"></path></g><g><path style="opacity:0.907" fill="#faa967" d="M 2.5,170.5 C 1.5,170.5 0.5,170.5 -0.5,170.5C -0.5,169.167 -0.5,167.833 -0.5,166.5C 18.5358,130.293 44.8692,100.46 78.5,77C 86.8419,71.8825 95.8419,69.8825 105.5,71C 107.418,72.7702 107.918,74.9369 107,77.5C 97.6314,86.5372 87.9648,95.2038 78,103.5C 72.6846,110.301 72.018,117.301 76,124.5C 84.2665,133.553 94.4332,139.386 106.5,142C 141.701,150.705 176.034,148.205 209.5,134.5C 210.442,134.608 211.275,134.941 212,135.5C 212.667,137.167 212.667,138.833 212,140.5C 209.72,144.112 206.553,146.612 202.5,148C 178.043,158.092 152.543,163.592 126,164.5C 108.455,163.036 90.9545,161.203 73.5,159C 53.1689,157.15 33.1689,158.817 13.5,164C 9.07716,165.199 5.41049,167.366 2.5,170.5 Z"></path></g><g><path style="opacity:0.585" fill="#faa967" d="M 140.5,113.5 C 142.5,113.5 144.5,113.5 146.5,113.5C 146.607,115.903 145.607,117.736 143.5,119C 126.734,129.505 109.067,131.339 90.5,124.5C 108.444,125.914 125.111,122.247 140.5,113.5 Z"></path></g><g><path style="opacity:0.66" fill="#faa967" d="M 165.5,117.5 C 167.5,117.5 169.5,117.5 171.5,117.5C 171.657,118.873 171.49,120.207 171,121.5C 155.279,134.926 137.112,140.093 116.5,137C 110.554,135.517 104.554,134.35 98.5,133.5C 98.3505,132.448 98.5172,131.448 99,130.5C 122.979,134.812 145.146,130.479 165.5,117.5 Z"></path></g><g><path style="opacity:0.707" fill="#faa967" d="M 186.5,122.5 C 189.167,122.5 191.833,122.5 194.5,122.5C 193.909,125.614 192.242,128.114 189.5,130C 170.541,143.535 149.541,148.202 126.5,144C 120.053,142.944 113.719,141.444 107.5,139.5C 127.994,141.13 147.994,138.63 167.5,132C 173.894,128.803 180.227,125.636 186.5,122.5 Z"></path></g></svg> 